<?xml version="1.0" encoding="UTF-8"?>
<svg xmlns="http://www.w3.org/2000/svg" version="1.1" viewBox="0 0 212 212">
  <defs>
    <style>
      .cls-1 {
        fill: #2a94b3;
      }

      .cls-2 {
        stroke: #f1fcf1;
        stroke-linejoin: round;
        stroke-width: 67.2px;
      }

      .cls-2, .cls-3 {
        fill: #0891b2;
      }

      .cls-4 {
        fill: #f1fcf1;
      }

      .cls-5 {
        fill: #45dbf4;
      }
    </style>
  </defs>
  <!-- Generator: Adobe Illustrator 28.7.0, SVG Export Plug-In . SVG Version: 1.2.0 Build 136)  -->
  <g>
    <g id="Calque_1">
      <g id="Vektorhaken">
        <circle class="cls-5" cx="106" cy="106" r="101.5"/>
        <circle class="cls-3" cx="106" cy="106" r="90.4"/>
        <circle class="cls-3" cx="106" cy="106" r="90.4"/>
        <path class="cls-2" d="M48.5,104.5c32.8,34.4,41.2,39.3,41.2,39.3l70.8-85.4"/>
        <g>
          <path class="cls-1" d="M260.5,192.9c19.3,17.9,24.2,20.4,24.2,20.4l41.6-44.4"/>
          <path class="cls-4" d="M284.7,235.9c-4,0-8-.9-11.7-2.8-2-1-8-4.1-29.7-24.2l34.3-31.9c1.7,1.6,3.3,3.1,4.8,4.4l25.6-27.3,36.6,29.7-41.6,44.4c-4.7,5.1-11.5,7.7-18.3,7.7ZM297.9,194.4h0,0Z"/>
        </g>
      </g>
    </g>
  </g>
</svg>